# xmcd CD database file
#
# Track frame offsets:
#	182
#	14342
#	30950
#	50292
#	65317
#	85047
#	97922
#	108690
#	121592
#	136602
#	151217
#	161422
#	175630
#
# Disc length: 2531 seconds
#
# Revision: 2
# Processed by: cddbd v1.4b42PL1 Copyright (c) Steve Scherf et al.
# Submitted via: CDex 1.40Beta8
#
DISCID=8609e10d
DTITLE=Grupo Raça - Jeito De Felicidade
DYEAR=1900
DGENRE=Pop
TTITLE0=Quem Ama
TTITLE1=Tô  Legal
TTITLE2=Jeito De Felicidade
TTITLE3=Te Amo
TTITLE4=Além Do Céu
TTITLE5=Me Leva Pra  Onde Quizer
TTITLE6=Poder Da Criação
TTITLE7=Tamandaré
TTITLE8=Fome De Amar
TTITLE9=Do Samba Não Vou Sair
TTITLE10=No Zig Zaz Do Seu Bum Bum
TTITLE11=De Bem Com Deus
TTITLE12=África
EXTD=ID3G: 13
EXTT0=
EXTT1=
EXTT2=
EXTT3=
EXTT4=
EXTT5=
EXTT6=Das 200 Pr  L \nN  Na Madeira\nClube Do Samba\nMineira\nUm Ser De Luz\nMinha Miss o\n
EXTT7=
EXTT8=
EXTT9=
EXTT10=
EXTT11=
EXTT12=
PLAYORDER=
